# xmcd CD database file
#
# Track frame offsets:
#	150
#	21175
#	42700
#	70975
#	95650
#	110650
#	142025
#	159800
#	172525
#	189475
#	204175
#	222525
#	244675
#
# Disc length: 3360 seconds
#
# Revision: 0
# Processed by: cddbd v1.4PL0 Copyright (c) Steve Scherf et al.
# Submitted via: CDex 1.40Release
#
DISCID=b60d1e0d
DTITLE=Southside Denny - Rendez-vous Blues
DYEAR=1900
DGENRE=Blues
TTITLE0=Rendez-vous Blue
TTITLE1=Slidin
TTITLE2=Lovin' like blues
TTITLE3=If I'm lyin' I'm dyin
TTITLE4=Buttkicker
TTITLE5=Everybody's blues
TTITLE6=Roots thang
TTITLE7=It's been so long
TTITLE8=Too many holes
TTITLE9=Baby needs a new pair of shoes
TTITLE10=Good to be back
TTITLE11=Count on me blues
TTITLE12=Petite berceuse
EXTD=ID3G: 0
EXTT0=
EXTT1=
EXTT2=
EXTT3=
EXTT4=
EXTT5=
EXTT6=
EXTT7=
EXTT8=
EXTT9=
EXTT10=
EXTT11=
EXTT12=
PLAYORDER=
